<?xml version="1.0" encoding="utf-8"?>
<!-- Generator: Adobe Illustrator 18.1.1, SVG Export Plug-In . SVG Version: 6.00 Build 0)  -->
<svg version="1.1" id="Camada_1" xmlns="http://www.w3.org/2000/svg" xmlns:xlink="http://www.w3.org/1999/xlink" x="0px" y="0px"
	 viewBox="0 83 430.8 108.7" style="enable-background:new 0 83 430.8 108.7;" xml:space="preserve">
<style type="text/css">
	.st0{fill:#0043C0;}
</style>
<g>
	<polygon class="st0" points="320.8,113.9 303.3,146.4 324.4,146.4 321.2,113.9 	"/>
	<path class="st0" d="M430.8,98.9V83H0v16h23.1v3H0v15.4h23.1v3H0v16.2h23.1v2.8H0v16.4h23.1v3H0v15.6h23.1v3H0v14.6h430.8V177
		h-23.1v-3h23.1v-15.6h-23.1v-3h23.1v-16.4h-23.1v-2.8h23.1v-16.2h-23.1v-3h23.1v-15.4h-23.1v-3H430.8z M105.1,121.6v0.2H83.2
		c0.8-3,0.2-5.3-1.4-6.9c-1.6-1.8-4.1-2.6-7.9-2.6c-4.9,0-10.1,3.1-10.9,7.1c-1.2,5.7,5.4,7.5,10.9,9.1c12.5,3.4,31.4,4.7,26.8,25.8
		c-3.5,16.4-21.5,24.3-39.6,24.3c-18.1,0-33.1-5.3-28.8-26.6h21.7c-1.7,7.5,2.8,11.4,10.7,11.4c4.9,0,11.8-2.8,13-7.9
		c2.2-10.7-14.4-8.3-29.8-15.8c-7.1-3.6-9.5-10.7-7.7-19.1c4.9-18.5,22.3-23.6,38.6-23.6C95.1,96.9,110.4,102.6,105.1,121.6z
		 M171.6,145.3h-34.9l-3.6,16.5H171l-3.1,15.2v0h-59.5l16.5-78.3h59.5l-3.1,15.2h-38.1l-3.3,16.2h34.9L171.6,145.3z M226.4,177
		l-13.8-60h-0.2L199.6,177h-19.5l16.8-78.4h30.4l13.8,58.4l0.2-0.2l12.4-58.2h19.5L256.4,177H226.4z M328.3,177l-2-15.4h-31.8
		l-8.3,15.4h-21.7l47.5-78.3h26.4l14.2,78.3H328.3z M382.8,177L382.8,177l-21.7,0l16.5-78.3h21.7L382.8,177z"/>
</g>
</svg>
