<?xml version="1.0" encoding="utf-8"?>
<!-- Generator: Adobe Illustrator 18.1.1, SVG Export Plug-In . SVG Version: 6.00 Build 0)  -->
<svg version="1.1" id="Camada_1" xmlns="http://www.w3.org/2000/svg" xmlns:xlink="http://www.w3.org/1999/xlink" x="0px" y="0px"
	 viewBox="0 0 109.1 109.1" style="enable-background:new 0 0 109.1 109.1;" xml:space="preserve">
<style type="text/css">
	.adsst0{fill:#3F6BAD;}
	.adsst1{fill:#77A739;}
</style>
<g>
	<path class="adsst0" d="M54.5,0C24.4,0,0,24.4,0,54.5c0,30.1,24.4,54.5,54.5,54.5c30.1,0,54.5-24.4,54.5-54.5
		C109.1,24.4,84.7,0,54.5,0z M54.5,96.1C31.6,96.1,13,77.5,13,54.5S31.6,13,54.5,13c22.9,0,41.5,18.6,41.5,41.5S77.5,96.1,54.5,96.1
		z"/>
</g>
<polygon class="adsst1" points="67.4,60.5 50,77.9 41.4,70 59.1,52.4 "/>
<polygon class="adsst1" points="66.4,41.9 49,59.2 40.4,51.4 58.1,33.7 "/>
</svg>
