<?xml version="1.0" encoding="utf-8"?>
<!-- Generator: Adobe Illustrator 18.1.1, SVG Export Plug-In . SVG Version: 6.00 Build 0)  -->
<svg version="1.1" id="Camada_1" xmlns="http://www.w3.org/2000/svg" xmlns:xlink="http://www.w3.org/1999/xlink" x="0px" y="0px"
	 viewBox="0 0 283.6 110" style="enable-background:new 0 0 283.6 110;" xml:space="preserve">
<style type="text/css">
	.st0{fill:none;stroke:#000000;stroke-width:12;stroke-miterlimit:10;}
	.st1{fill:#FFFFFF;}
</style>
<g>
	<path d="M117.2,18.4l-5.5,1.9c-0.6-2.1-1.5-3.6-2.6-4.6c-1.1-1-2.5-1.5-4.3-1.5c-1.7,0-3,0.5-3.9,1.5c-0.9,1-1.4,2.1-1.4,3.4
		c0,1.4,0.5,2.6,1.6,3.4c1,0.8,3.1,1.9,6.2,3c2.6,1,4.7,2,6.1,2.9c1.4,0.9,2.6,2.1,3.5,3.7s1.3,3.3,1.3,5.3c0,3.3-1.2,6.1-3.5,8.3
		s-5.5,3.4-9.7,3.4c-7.2,0-11.6-3.6-13.3-10.9l5.8-1.6c1,4.8,3.6,7.2,7.9,7.2c2.1,0,3.6-0.5,4.7-1.6c1.1-1.1,1.6-2.4,1.6-4
		c0-1.2-0.4-2.2-1.1-3.2c-0.7-1-2.6-2-5.5-3.2c-3.1-1.2-5.4-2.2-6.7-3c-1.4-0.8-2.6-2-3.5-3.6c-1-1.6-1.5-3.4-1.5-5.4
		c0-3.1,1.1-5.7,3.2-7.8c2.2-2.1,5-3.2,8.6-3.2C111.5,8.9,115.5,12.1,117.2,18.4z"/>
	<path d="M131.4,9.7h7.2l10.4,38.9h-6.5l-2.4-9.7h-11.4l-2.4,9.7h-6.1L131.4,9.7z M138.9,33.7l-4.5-17.8L130,33.7H138.9z"/>
	<path d="M153,9.7h6.4v33.5h13.8v5.4H153V9.7z"/>
	<path d="M184.1,9.7h7.2l10.4,38.9h-6.5l-2.4-9.7h-11.4l-2.4,9.7h-6.1L184.1,9.7z M191.6,33.7l-4.5-17.8l-4.4,17.8H191.6z"/>
	<path d="M216.6,9.7h8.8c4.2,0,7.6,0.8,10.2,2.3c2.5,1.5,4.5,3.7,5.8,6.7c1.3,3,2,6.3,2,9.9c0,3.8-0.6,7.2-1.8,10.2
		c-1.2,3-3,5.4-5.4,7.2c-2.4,1.8-5.8,2.7-10.3,2.7h-9.2V9.7z M223,14.8v28.6h2.7c3.8,0,6.5-1.3,8.2-3.9c1.7-2.6,2.5-6.1,2.5-10.4
		c0-9.5-3.6-14.3-10.7-14.3H223z"/>
	<path d="M249.4,9.7h22.3v5.2h-15.8v11.1h12.4v5.2h-12.4v12.2h16.1v5.3h-22.5V9.7z"/>
	<path d="M123.2,57.7l-11.8,38.9h-9.8L90,57.7h9.7l7.8,27.8l8.1-27.8H123.2z"/>
	<path d="M135.8,57.7v38.9h-9.1V57.7H135.8z"/>
	<path d="M170.4,66.2l-7.8,2.6c-1-3.1-3.3-4.6-6.6-4.6c-3.6,0-5.4,1.2-5.4,3.5c0,0.9,0.3,1.7,1,2.4c0.7,0.6,2.2,1.2,4.6,1.7
		c4,0.8,6.9,1.6,8.7,2.4c1.8,0.8,3.4,2.1,4.7,3.9s1.9,3.8,1.9,6.1c0,3.5-1.4,6.6-4.1,9.1c-2.7,2.6-6.7,3.8-12,3.8
		c-4,0-7.4-0.9-10.2-2.7c-2.8-1.8-4.6-4.5-5.5-8.1l8.4-1.9c0.9,3.6,3.6,5.4,7.9,5.4c2.1,0,3.6-0.4,4.7-1.2c1-0.8,1.5-1.8,1.5-2.9
		c0-1.1-0.5-2-1.4-2.6s-2.7-1.2-5.4-1.8c-5-1-8.5-2.4-10.6-4.2c-2.1-1.8-3.2-4.4-3.2-7.8c0-3.5,1.3-6.4,3.8-8.7
		c2.5-2.4,5.9-3.6,10.2-3.6C163.4,57.1,168.3,60.1,170.4,66.2z"/>
	<path d="M186.5,57.7v38.9h-9.1V57.7H186.5z"/>
	<path d="M219,57.7v7.7h-9.6v31.2h-9.2V65.4h-9.7v-7.7H219z"/>
	<path d="M239.3,57.7l12.2,38.9h-9.8l-2.4-8h-12.6l-2.4,8h-8l12.5-38.9H239.3z M228.9,81.4h8.2L233,67.7L228.9,81.4z"/>
	<path d="M282.5,66.2l-7.8,2.6c-1-3.1-3.3-4.6-6.6-4.6c-3.6,0-5.4,1.2-5.4,3.5c0,0.9,0.3,1.7,1,2.4c0.7,0.6,2.2,1.2,4.6,1.7
		c4,0.8,6.9,1.6,8.7,2.4c1.8,0.8,3.4,2.1,4.7,3.9s1.9,3.8,1.9,6.1c0,3.5-1.4,6.6-4.1,9.1c-2.7,2.6-6.7,3.8-12,3.8
		c-4,0-7.4-0.9-10.2-2.7c-2.8-1.8-4.6-4.5-5.5-8.1l8.4-1.9c0.9,3.6,3.6,5.4,7.9,5.4c2.1,0,3.6-0.4,4.7-1.2c1-0.8,1.5-1.8,1.5-2.9
		c0-1.1-0.5-2-1.4-2.6s-2.7-1.2-5.4-1.8c-5-1-8.5-2.4-10.6-4.2c-2.1-1.8-3.2-4.4-3.2-7.8c0-3.5,1.3-6.4,3.8-8.7
		c2.5-2.4,5.9-3.6,10.2-3.6C275.4,57.1,280.3,60.1,282.5,66.2z"/>
</g>
<g>
	<g>
		<path class="st0" d="M69,104H12c-3.3,0-6-2.7-6-6V12c0-3.3,2.7-6,6-6h57c3.3,0,6,2.7,6,6v86C75,101.3,72.3,104,69,104z"/>
		<circle class="st1" cx="40.3" cy="104" r="4.4"/>
	</g>
</g>
</svg>
