<?xml version="1.0" encoding="utf-8"?>
<!-- Generator: Adobe Illustrator 18.1.1, SVG Export Plug-In . SVG Version: 6.00 Build 0)  -->
<svg version="1.1" id="Camada_1" xmlns="http://www.w3.org/2000/svg" xmlns:xlink="http://www.w3.org/1999/xlink" x="0px" y="0px"
	 viewBox="0 61 430.8 167.1" enable-background="new 0 61 430.8 167.1" xml:space="preserve">
<g>
	<path fill="#FFFFFF" d="M178.1,89l-8.4,2.9c-0.9-3.2-2.3-5.5-4-7c-1.7-1.5-3.8-2.3-6.5-2.3c-2.6,0-4.6,0.8-5.9,2.3
		c-1.4,1.5-2.1,3.2-2.1,5.2c0,2.1,0.8,4,2.4,5.2c1.5,1.2,4.7,2.9,9.4,4.6c4,1.5,7.1,3,9.3,4.4c2.1,1.4,4,3.2,5.3,5.6
		c1.4,2.4,2,5,2,8.1c0,5-1.8,9.3-5.3,12.6c-3.5,3.3-8.4,5.2-14.7,5.2c-10.9,0-17.6-5.5-20.2-16.6l8.8-2.4c1.5,7.3,5.5,10.9,12,10.9
		c3.2,0,5.5-0.8,7.1-2.4c1.6-1.6,2.4-3.6,2.4-6.1c0-1.8-0.6-3.3-1.7-4.9c-1.1-1.5-4-3-8.4-4.9c-4.7-1.8-8.2-3.3-10.2-4.6
		c-2.1-1.2-4-3-5.3-5.5c-1.5-2.4-2.3-5.2-2.3-8.2c0-4.7,1.7-8.7,4.9-11.9c3.3-3.2,7.6-4.9,13.1-4.9C169.4,74.5,175.5,79.4,178.1,89z
		"/>
	<path fill="#FFFFFF" d="M199.6,75.7h10.9l15.8,59.1h-9.9l-3.6-14.7h-17.3l-3.6,14.7h-9.3L199.6,75.7z M211,112.2l-6.8-27l-6.7,27
		H211z"/>
	<path fill="#FFFFFF" d="M232.5,75.7h9.7v50.9h21v8.2h-30.7L232.5,75.7L232.5,75.7z"/>
	<path fill="#FFFFFF" d="M279.7,75.7h10.9l15.8,59.1h-9.9l-3.6-14.7h-17.3l-3.6,14.7h-9.3L279.7,75.7z M291.1,112.2l-6.8-27l-6.7,27
		H291.1z"/>
	<path fill="#FFFFFF" d="M329.1,75.7h13.4c6.4,0,11.5,1.2,15.5,3.5c3.8,2.3,6.8,5.6,8.8,10.2c2,4.6,3,9.6,3,15
		c0,5.8-0.9,10.9-2.7,15.5s-4.6,8.2-8.2,10.9c-3.6,2.7-8.8,4.1-15.6,4.1h-14V75.7H329.1z M338.8,83.5V127h4.1c5.8,0,9.9-2,12.5-5.9
		c2.6-4,3.8-9.3,3.8-15.8c0-14.4-5.5-21.7-16.3-21.7L338.8,83.5L338.8,83.5z"/>
	<path fill="#FFFFFF" d="M378.9,75.7h33.9v7.9h-24v16.9h18.8v7.9h-18.8v18.5h24.5v8.1h-34.2V75.7H378.9z"/>
	<path fill="#FFFFFF" d="M187.2,148.7l-17.9,59.1h-14.9l-17.6-59.1h14.7l11.9,42.2l12.3-42.2L187.2,148.7L187.2,148.7z"/>
	<path fill="#FFFFFF" d="M206.3,148.7v59.1h-13.8v-59.1L206.3,148.7L206.3,148.7z"/>
	<path fill="#FFFFFF" d="M258.9,161.6l-11.9,4c-1.5-4.7-5-7-10-7c-5.5,0-8.2,1.8-8.2,5.3c0,1.4,0.5,2.6,1.5,3.6
		c1.1,0.9,3.3,1.8,7,2.6c6.1,1.2,10.5,2.4,13.2,3.6c2.7,1.2,5.2,3.2,7.1,5.9c2,2.7,2.9,5.8,2.9,9.3c0,5.3-2.1,10-6.2,13.8
		c-4.1,4-10.2,5.8-18.2,5.8c-6.1,0-11.2-1.4-15.5-4.1c-4.3-2.7-7-6.8-8.4-12.3l12.8-2.9c1.4,5.5,5.5,8.2,12,8.2
		c3.2,0,5.5-0.6,7.1-1.8c1.5-1.2,2.3-2.7,2.3-4.4s-0.8-3-2.1-4c-1.4-0.9-4.1-1.8-8.2-2.7c-7.6-1.5-12.9-3.6-16.1-6.4
		c-3.2-2.7-4.9-6.7-4.9-11.9c0-5.3,2-9.7,5.8-13.2c3.8-3.6,9-5.5,15.5-5.5C248.3,147.8,255.7,152.3,258.9,161.6z"/>
	<path fill="#FFFFFF" d="M283.3,148.7v59.1h-13.8v-59.1L283.3,148.7L283.3,148.7z"/>
	<path fill="#FFFFFF" d="M332.7,148.7v11.7h-14.6v47.4h-14v-47.4h-14.7v-11.7H332.7z"/>
	<path fill="#FFFFFF" d="M363.6,148.7l18.5,59.1h-14.9l-3.6-12.2h-19.1l-3.6,12.2h-12.2l19-59.1
		C347.6,148.7,363.6,148.7,363.6,148.7z M347.8,184.7h12.5l-6.2-20.8L347.8,184.7z"/>
	<path fill="#FFFFFF" d="M429.2,161.6l-11.9,4c-1.5-4.7-5-7-10-7c-5.5,0-8.2,1.8-8.2,5.3c0,1.4,0.5,2.6,1.5,3.6
		c1.1,0.9,3.3,1.8,7,2.6c6.1,1.2,10.5,2.4,13.2,3.6s5.2,3.2,7.1,5.9c2,2.7,2.9,5.8,2.9,9.3c0,5.3-2.1,10-6.2,13.8
		c-4.1,4-10.2,5.8-18.2,5.8c-6.1,0-11.2-1.4-15.5-4.1c-4.3-2.7-7-6.8-8.4-12.3l12.8-2.9c1.4,5.5,5.5,8.2,12,8.2
		c3.2,0,5.5-0.6,7.1-1.8c1.5-1.2,2.3-2.7,2.3-4.4s-0.8-3-2.1-4c-1.4-0.9-4.1-1.8-8.2-2.7c-7.6-1.5-12.9-3.6-16.1-6.4
		c-3.2-2.7-4.9-6.7-4.9-11.9c0-5.3,2-9.7,5.8-13.2c3.8-3.6,9-5.5,15.5-5.5C418.4,147.8,425.9,152.3,429.2,161.6z"/>
</g>
<path fill="#FFFFFF" d="M104.8,61H18.2C8.2,61,0,69.2,0,79.2v130.7c0,10,8.2,18.2,18.2,18.2h86.6c10,0,18.2-8.2,18.2-18.2V79.2
	C123.1,69.2,114.9,61,104.8,61z M61.2,225.7c-3.7,0-6.7-3-6.7-6.7s3-6.7,6.7-6.7c3.7,0,6.7,3,6.7,6.7S64.9,225.7,61.2,225.7z
	 M104.8,209.9H18.2V79.2h86.6V209.9z"/>
</svg>
