<?xml version="1.0" encoding="utf-8"?>
<!-- Generator: Adobe Illustrator 18.1.1, SVG Export Plug-In . SVG Version: 6.00 Build 0)  -->
<svg version="1.1" id="Layer_1" xmlns="http://www.w3.org/2000/svg" xmlns:xlink="http://www.w3.org/1999/xlink" x="0px" y="0px"
	 viewBox="0 0 226.5 99.9" style="enable-background:new 0 0 226.5 99.9;" xml:space="preserve">
<style type="text/css">
	.lst0{fill-rule:evenodd;clip-rule:evenodd;fill:#004995;}
	.lst1{fill-rule:evenodd;clip-rule:evenodd;fill:#B50B14;}
</style>
<path class="lst0" d="M67.4,95c-5.6,2-11.5,3.6-17.8,4.8h55.6V65.7C98.2,78.6,85.3,88.6,67.4,95z"/>
<g>
	<g>
		<path class="lst0" d="M89.1,39.9h-4.3l-1,5.9h4.5c2.7,0,4.1-1.2,4.1-3.2C92.4,40.9,91.2,39.9,89.1,39.9z M48.1,24.1
			c0-0.9-0.6-1.5-1.4-1.5c-0.9,0-1.6,0.6-1.9,1.9H48C48,24.2,48.1,24.1,48.1,24.1z M86.9,51.7h-4.1l-1.2,6.7h4.8
			c3.1,0,4.8-1.2,4.8-3.3C91.1,52.9,89.6,51.7,86.9,51.7z M0,0v98c43,3.1,94.6-6.5,105.2-43.7l0,0V0H0z M72,24.2c0.2,0,0.4,0,0.7,0
			c0-0.2,0.1-0.4,0.1-0.4c0-0.7-0.4-1.1-1.3-1.1c-0.8,0-1.4,0.4-1.7,1l-2-0.5c0.6-1.2,1.9-2,3.9-2c2.1,0,3.2,0.9,3.2,2.4
			c0,0.2,0,0.5-0.1,0.8l-0.6,3.2c-0.1,0.3-0.1,0.6-0.1,0.9c0,0.2,0,0.4,0,0.7h-2.2c0-0.2,0-0.4,0-0.6c0-0.2,0-0.5,0.1-0.9
			c-0.6,1.1-1.6,1.6-2.7,1.6c-1.5,0-2.5-0.9-2.5-2.3C66.9,25.2,68.7,24.2,72,24.2z M53.7,21.4h2l-0.2,1.5c0.6-1.1,1.5-1.7,2.5-1.7
			c1.1,0,1.8,0.6,2,1.7c0.6-1.1,1.5-1.7,2.6-1.7c1.3,0,2.1,0.8,2.1,2.1c0,0.3,0,0.6-0.1,1l-0.9,4.9h-2.2l0.8-4.8c0-0.2,0-0.4,0-0.5
			c0-0.7-0.3-1.1-0.9-1.1c-0.7,0-1.4,0.7-1.6,2l-0.8,4.4h-2.2l0.8-4.8c0-0.2,0.1-0.4,0.1-0.5c0-0.7-0.3-1.1-0.9-1.1
			c-0.7,0-1.4,0.7-1.6,2l-0.8,4.4h-2.2L53.7,21.4z M46.7,21.1c2.1,0,3.5,1.4,3.5,3.7c0,0.3,0,0.5-0.1,0.8h-5.6c0,0.2,0,0.3,0,0.4
			c0,1.1,0.6,1.8,1.6,1.8c0.7,0,1.3-0.4,1.7-1.2l2,0.4c-0.8,1.5-2.2,2.4-3.8,2.4c-2.2,0-3.7-1.4-3.7-3.7
			C42.3,23.1,44.1,21.1,46.7,21.1z M35.7,21.5h1.1l0.5-2.2l2.1-0.2L39,21.5h1.6L40.4,23h-1.6l-0.6,3.5c0,0.1,0,0.3,0,0.5
			c0,0.6,0.3,0.8,1,0.8c0.2,0,0.5,0,0.8-0.1l-0.3,1.6c-0.4,0.1-0.8,0.1-1.2,0.1c-1.6,0-2.5-0.7-2.5-2.1c0-0.3,0-0.7,0.1-1.2l0.6-3.2
			h-1.1L35.7,21.5z M28.7,26c-1.4-0.7-2.2-1.4-2.2-2.4c0-1.3,1.3-2.5,3.1-2.5c1.6,0,2.9,0.8,3.3,2l-1.8,0.5c-0.3-0.6-1-1-1.5-1
			c-0.5,0-0.8,0.3-0.8,0.7c0,0.6,0.6,0.8,1.5,1.3c1.4,0.7,2.1,1.3,2.1,2.4c0,1.4-1.4,2.6-3.5,2.6c-1.9,0-3.3-0.9-3.6-2.3l1.9-0.4
			c0.3,0.8,1,1.2,1.7,1.2c0.6,0,1-0.3,1-0.8C30.1,26.8,29.6,26.4,28.7,26z M21.8,18.6h2.4l-0.3,1.9h-2.4L21.8,18.6z M21.4,21.4h2.3
			l-1.4,7.9H20L21.4,21.4z M12.8,24.6c-1.9-0.7-2.8-1.5-2.8-3c0-1.8,1.6-3.2,3.8-3.2c2.1,0,3.8,1.1,4.3,2.7l-2,0.6
			c-0.3-0.9-1.1-1.5-2.2-1.5c-1,0-1.5,0.5-1.5,1.2c0,1,1,1.1,2.6,1.7c1.8,0.7,2.7,1.6,2.7,3c0,1.9-1.6,3.4-4.4,3.4
			c-2.4,0-4.1-1.2-4.6-3.1l2.2-0.5c0.3,1.1,1.3,1.7,2.6,1.7c1.1,0,1.7-0.6,1.7-1.3C15.2,25.3,14.2,25.1,12.8,24.6z M26.9,52.9H16.6
			l-2.1,12.2H5l5.6-31.7h22.5L32,40.3H18.8l-1,5.8h10.3L26.9,52.9z M30.3,65.1l5.6-31.7h9.9l-5.6,31.7H30.3z M68.8,65.1H44.9
			l5.6-31.7h23.1l-1.2,6.9H58.3l-1,5.1h12l-1.2,6.9h-12l-1,5.5h14.9L68.8,65.1z M100,56.2c0,5.4-4.2,8.9-11.6,8.9H71.6l5.6-31.7
			h13.2c7.4,0,11.1,2.5,11.1,7.9c0,4-2.7,6.9-7.1,7.6C98,49.9,100,52.6,100,56.2z M70.4,27.9c1,0,2-0.9,2.1-2.5c-0.2,0-0.4,0-0.4,0
			c-1.8,0-2.8,0.6-2.8,1.5C69.3,27.5,69.7,27.9,70.4,27.9z"/>
	</g>
</g>
<rect x="117.4" y="0" class="lst1" width="109" height="2.1"/>
<rect x="117.4" y="32.6" class="lst1" width="109" height="2.1"/>
<rect x="117.4" y="65.2" class="lst1" width="109" height="2.1"/>
<rect x="117.4" y="97.8" class="lst1" width="109" height="2.1"/>
<path class="lst0" d="M135.6,58.3c2.5,0,3.9-1.3,3.9-3c0-2.2-2.2-2.7-5.3-3.8c-4.4-1.6-6.5-3.5-6.5-7c0-4.1,3.6-7.3,8.7-7.3
	c4.8,0,8.6,2.4,9.8,6.1l-4.7,1.3c-0.7-2.1-2.6-3.4-5-3.4c-2.2,0-3.4,1.1-3.4,2.7c0,2.2,2.3,2.5,5.9,3.9c4.1,1.5,6.1,3.7,6.1,6.9
	c0,4.4-3.8,7.8-10,7.8c-5.5,0-9.4-2.7-10.5-7l5-1.2C130.3,56.8,132.6,58.3,135.6,58.3z"/>
<polygon class="lst0" points="150.7,37.8 167.8,37.8 167.1,41.9 155.3,41.9 154.3,47.4 164.3,47.4 163.6,51.5 153.5,51.5 152.4,57.8 
	165,57.8 164.3,62.2 146.4,62.2 "/>
<polygon class="lst0" points="170.8,37.8 176,37.8 183.4,54.1 186.3,37.8 190.5,37.8 186.2,62.2 182,62.2 173.8,44.3 170.7,62.2 
	166.5,62.2 "/>
<path class="lst0" d="M204.8,37.8l4.1,24.4h-5.2l-0.9-5.9h-8.1l-2.8,5.9h-4.5l11.6-24.4H204.8L204.8,37.8z M196.5,52.3h5.8l-1.4-9.7
	L196.5,52.3z"/>
<polygon class="lst0" points="219.5,37.8 215.2,62.2 209.5,62.2 213.8,37.8 "/>
</svg>
